<svg id="Group_71" data-name="Group 71" xmlns="http://www.w3.org/2000/svg" xmlns:xlink="http://www.w3.org/1999/xlink" width="9.744" height="8.637" viewBox="0 0 9.744 8.637">
  <defs>
    <clipPath id="clip-path">
      <rect id="Rectangle_210" data-name="Rectangle 210" width="9.744" height="8.637" fill="#fff"/>
    </clipPath>
  </defs>
  <g id="Group_59" data-name="Group 59" clip-path="url(#clip-path)">
    <path id="Path_5" data-name="Path 5" d="M.342,0A.332.332,0,0,0,.267.658L1,.818c.388,1.859.812,3.71,1.223,5.565a.332.332,0,0,0,.324.26H8.382a.332.332,0,1,0,0-.664H2.815l-.147-.664H8.676A.332.332,0,0,0,9,5.054l.736-3.321a.332.332,0,0,0-.324-.4H1.788L1.607.471A.332.332,0,0,0,1.353.215L.409.008A.353.353,0,0,0,.343,0ZM3.931,6.865a.886.886,0,1,0,.886.886.891.891,0,0,0-.886-.886m3.1,0a.886.886,0,1,0,.886.886.891.891,0,0,0-.886-.886" transform="translate(0 0)" fill="#fff"/>
  </g>
</svg>
