<svg xmlns="http://www.w3.org/2000/svg" width="156.2" height="156.177" viewBox="0 0 156.2 156.177">
  <g id="orange-cutaway-svgrepo-com" transform="translate(0 -0.037)">
    <path id="Path_45" data-name="Path 45" d="M139.744,30.219A78.922,78.922,0,0,0,126,16.471,78.068,78.068,0,0,0,10.433,117.081a78.734,78.734,0,0,0,28.7,28.7A78.062,78.062,0,0,0,139.744,30.219ZM78.1,142.509A64.387,64.387,0,1,1,142.49,78.122,64.387,64.387,0,0,1,78.1,142.509Z" fill="#f79420"/>
    <path id="Path_46" data-name="Path 46" d="M173.754,295.383a1.216,1.216,0,0,0-1.32.263l-24.526,24.523a4.847,4.847,0,0,0-1.393,3.889,5.581,5.581,0,0,0,2.114,3.548,27.953,27.953,0,0,0,20.1,8.327,5.926,5.926,0,0,0,4.005-1.012,4.837,4.837,0,0,0,1.765-3.737l0-34.681A1.211,1.211,0,0,0,173.754,295.383Z" transform="translate(-101.801 -205.179)" fill="#f79420"/>
    <path id="Path_47" data-name="Path 47" d="M274.458,124.013a1.207,1.207,0,0,0,1.317-.261L300.3,99.227a4.859,4.859,0,0,0,1.4-3.887,5.593,5.593,0,0,0-2.119-3.548,27.971,27.971,0,0,0-20.1-8.327,5.91,5.91,0,0,0-4.005,1.014,4.842,4.842,0,0,0-1.763,3.735V122.9A1.208,1.208,0,0,0,274.458,124.013Z" transform="translate(-190.209 -57.976)" fill="#f79420"/>
    <path id="Path_48" data-name="Path 48" d="M124.011,270.9a1.209,1.209,0,0,0-1.117-.743H88.21a4.824,4.824,0,0,0-3.735,1.76,5.6,5.6,0,0,0-1.016,4.008,27.966,27.966,0,0,0,8.329,20.1,5.932,5.932,0,0,0,3.548,2.117,4.834,4.834,0,0,0,3.884-1.4l24.53-24.525A1.214,1.214,0,0,0,124.011,270.9Z" transform="translate(-57.993 -187.715)" fill="#f79420"/>
    <path id="Path_49" data-name="Path 49" d="M295.4,180.107a1.213,1.213,0,0,0,1.117.746H331.2a4.837,4.837,0,0,0,3.738-1.762,5.607,5.607,0,0,0,1.014-4.008,27.969,27.969,0,0,0-8.327-20.1,5.927,5.927,0,0,0-3.547-2.117,4.855,4.855,0,0,0-3.892,1.393l-24.523,24.528A1.2,1.2,0,0,0,295.4,180.107Z" transform="translate(-205.213 -106.19)" fill="#f79420"/>
    <path id="Path_50" data-name="Path 50" d="M84.487,179.09a4.84,4.84,0,0,0,3.735,1.762H122.9a1.209,1.209,0,0,0,.855-2.066L99.234,154.261a4.83,4.83,0,0,0-3.887-1.393,5.564,5.564,0,0,0-3.548,2.114,28,28,0,0,0-8.33,20.1A5.949,5.949,0,0,0,84.487,179.09Z" transform="translate(-58.004 -106.19)" fill="#f79420"/>
    <path id="Path_51" data-name="Path 51" d="M334.931,271.923a4.824,4.824,0,0,0-3.738-1.763H296.51a1.208,1.208,0,0,0-.855,2.063l24.523,24.525a4.849,4.849,0,0,0,3.889,1.4,5.588,5.588,0,0,0,3.55-2.119,27.969,27.969,0,0,0,8.327-20.1A5.949,5.949,0,0,0,334.931,271.923Z" transform="translate(-205.211 -187.714)" fill="#f79420"/>
    <path id="Path_52" data-name="Path 52" d="M172.433,123.732a1.21,1.21,0,0,0,2.066-.855V88.2a4.835,4.835,0,0,0-1.763-3.738,5.575,5.575,0,0,0-4.005-1.014,27.991,27.991,0,0,0-20.1,8.324,5.927,5.927,0,0,0-2.114,3.55,4.832,4.832,0,0,0,1.393,3.889Z" transform="translate(-101.8 -57.957)" fill="#f79420"/>
    <path id="Path_53" data-name="Path 53" d="M275.776,295.645a1.21,1.21,0,0,0-2.064.86v34.683a4.841,4.841,0,0,0,1.763,3.735,5.574,5.574,0,0,0,4.005,1.014,27.968,27.968,0,0,0,20.1-8.327,5.957,5.957,0,0,0,2.119-3.55,4.869,4.869,0,0,0-1.4-3.889Z" transform="translate(-190.209 -205.18)" fill="#f79420"/>
  </g>
</svg>
