<svg id="Group_71" data-name="Group 71" xmlns="http://www.w3.org/2000/svg" xmlns:xlink="http://www.w3.org/1999/xlink" width="40.26" height="40.349" viewBox="0 0 40.26 40.349">
  <defs>
    <clipPath id="clip-path">
      <rect id="Rectangle_16" data-name="Rectangle 16" width="40.26" height="40.349" fill="none"/>
    </clipPath>
    <clipPath id="clip-path-3">
      <rect id="Rectangle_14" data-name="Rectangle 14" width="26.664" height="26.271" fill="none"/>
    </clipPath>
  </defs>
  <g id="Group_37" data-name="Group 37" clip-path="url(#clip-path)">
    <g id="Group_36" data-name="Group 36" transform="translate(0 0)">
      <g id="Group_35" data-name="Group 35" clip-path="url(#clip-path)">
        <path id="Path_1" data-name="Path 1" d="M40.26,20.169A20.131,20.131,0,1,1,20.072,0,20.174,20.174,0,0,1,40.26,20.169m-2.141,1.206c-.042-8.584-4.584-15.232-11.5-17.93A18.084,18.084,0,0,0,7.011,7.78c-3.929,4.189-2.812,9.4,2.508,11.574,1.345.549,2.744.964,4.126,1.419a9.526,9.526,0,0,1,6.267,5.886,42.7,42.7,0,0,0,1.908,4.521c2.479,4.766,7.552,5.48,11.287,1.607a16.982,16.982,0,0,0,5.011-11.412" transform="translate(0 0)" fill="#803960"/>
        <g id="Group_34" data-name="Group 34" transform="translate(8.07 5.644)" opacity="0.99">
          <g id="Group_33" data-name="Group 33">
            <g id="Group_32" data-name="Group 32" clip-path="url(#clip-path-3)">
              <path id="Path_2" data-name="Path 2" d="M32.689,11.305a14.464,14.464,0,0,0-17.649,1.706c-3.21,3.164-2.63,6.828,1.427,8.807a22.84,22.84,0,0,0,2.879,1.114,10.645,10.645,0,0,1,6.768,6.4,26.241,26.241,0,0,0,1.195,2.647c2.274,4.144,6,4.493,9.063.858A14.309,14.309,0,0,0,39.639,23.5a14.455,14.455,0,0,0-6.95-12.19m1.434,18.932c-2.285,3.118-4.93,3.039-6.575-.412a15.983,15.983,0,0,0-8.86-8.34c-3.446-1.4-3.669-4.012-.873-6.454,2.052-1.793,4.47-2.612,8.076-2.594a10.639,10.639,0,0,1,9.174,6.3,10.489,10.489,0,0,1-.942,11.5" transform="translate(-12.976 -9.074)" fill="#803960"/>
            </g>
          </g>
        </g>
      </g>
    </g>
  </g>
</svg>
