<svg xmlns="http://www.w3.org/2000/svg" width="177.54" height="182.094" viewBox="0 0 177.54 182.094">
  <path id="Icon_core-recycle" data-name="Icon core-recycle" d="M16.631,141.564a12.561,12.561,0,0,1,.082-12.745L36.905,94.53l4.57,20.143,12.384-2.81L44.381,70.087,2.6,79.565l2.81,12.384,21.091-4.785L5.77,122.375A25.4,25.4,0,0,0,27.655,160.66H60.368l12.7-12.7H27.655a12.562,12.562,0,0,1-11.024-6.4ZM101.97,21.2,123.3,57.423l-19.466-3.037-1.958,12.547,42.327,6.6,6.6-42.326-12.547-1.958L134.737,51.82,112.913,14.761a25.4,25.4,0,0,0-43.771,0L53.293,41.674l4.13,18.012L80.084,21.2a12.7,12.7,0,0,1,21.885,0Zm74.315,101.171-19-32.256-16.329-2.7,24.382,41.4A12.7,12.7,0,0,1,154.4,147.961H110.171l15.222-15.222-8.979-8.978L86.123,154.052l30.291,30.291,8.979-8.98-14.7-14.7H154.4a25.4,25.4,0,0,0,21.885-38.285Z" transform="translate(-2.258 -2.25)" fill="#f79420"/>
</svg>
