<svg xmlns="http://www.w3.org/2000/svg" width="15.625" height="18.029" viewBox="0 0 15.625 18.029">
  <path id="Icon_akar-tiktok-fill" data-name="Icon akar-tiktok-fill" d="M17.051,4.981a4.106,4.106,0,0,1-.355-.207A4.99,4.99,0,0,1,15.785,4a4.292,4.292,0,0,1-1.027-2.119h0a2.575,2.575,0,0,1-.04-.756h-3.1V13.1c0,.16,0,.32-.006.477,0,.019,0,.037,0,.058a.1.1,0,0,1,0,.026v.007a2.628,2.628,0,0,1-1.322,2.086,2.585,2.585,0,0,1-1.282.338,2.629,2.629,0,0,1,0-5.259,2.588,2.588,0,0,1,.8.128l0-3.154a5.751,5.751,0,0,0-4.432,1.3A6.076,6.076,0,0,0,4.058,10.74a5.663,5.663,0,0,0-.683,2.6A6.134,6.134,0,0,0,3.707,15.4V15.4a6.036,6.036,0,0,0,.84,1.533A6.3,6.3,0,0,0,5.889,18.2v-.008L5.9,18.2a5.8,5.8,0,0,0,3.161.951,5.605,5.605,0,0,0,2.346-.518,5.886,5.886,0,0,0,1.9-1.432,5.953,5.953,0,0,0,1.038-1.725,6.456,6.456,0,0,0,.373-1.973V7.153c.038.022.538.353.538.353a7.154,7.154,0,0,0,1.845.763A10.652,10.652,0,0,0,19,8.528V5.454a4.017,4.017,0,0,1-1.946-.473Z" transform="translate(-3.371 -1.125)" fill="#fff"/>
</svg>
